<svg xmlns="http://www.w3.org/2000/svg" width="244" height="32" fill="none" viewBox="0 0 244 32">
  <title>Spectral Textures</title>
  <path fill="#9ae600" d="M0 0h32v32H0z"/>
  <path fill="#000" d="M46.09 23.2q-1.56 0-2.77-.5a4.04 4.04 0 0 1-1.9-1.57q-.68-1.08-.66-2.78h2.7q.02.85.34 1.4.33.54.93.79t1.44.25q.74 0 1.25-.21.52-.22.78-.6.27-.39.27-.87 0-.6-.32-.96-.32-.37-.99-.66-.66-.29-1.7-.68a12.8 12.8 0 0 1-2.18-1.06q-.97-.61-1.52-1.47t-.55-2.06q0-1.32.63-2.21t1.73-1.33q1.1-.45 2.48-.45 2.11 0 3.32 1.09 1.22 1.09 1.41 3.27h-2.63q-.04-.62-.32-1.05a1.77 1.77 0 0 0-.73-.67q-.45-.23-1.09-.23-.93 0-1.52.37t-.59 1.14q0 .57.23.97.23.39.81.74.59.34 1.64.76.89.35 1.72.69.83.33 1.48.78.66.44 1.05 1.13.39.68.39 1.74.01 1.34-.66 2.3-.66.95-1.82 1.45-1.15.49-2.65.49m7.452 3.83V12.09h2.69l.05 1.62v6.57l-.13.78.13 1.95v4.02zm5.87-15.15q1.06 0 1.91.63.85.62 1.34 1.84.5 1.21.5 3 0 1.8-.58 3.1-.58 1.29-1.56 1.99a3.64 3.64 0 0 1-2.16.69q-.68 0-1.24-.28a2.74 2.74 0 0 1-.93-.8 3.25 3.25 0 0 1-.52-1.21l-.5-.68.58-.75q.11.48.37.8.27.32.63.48t.76.16q.7 0 1.24-.39.54-.4.84-1.18.31-.78.31-1.93 0-1.66-.55-2.42-.55-.77-1.57-.77-.36 0-.79.2-.43.19-.77.55t-.44.86l-.11-.61.1-.57q.17-.81.58-1.41a2.9 2.9 0 0 1 1.05-.95q.64-.35 1.51-.35m10.932 11.27q-1.56 0-2.7-.65-1.14-.66-1.76-1.91-.62-1.26-.62-3.05 0-1.83.63-3.09.63-1.27 1.75-1.92 1.12-.66 2.58-.66 2.16 0 3.35 1.32t1.19 3.75q0 .3-.02.55-.009.25-.03.56h-6.74q.05 1.03.34 1.67t.79.94q.51.29 1.21.29.681 0 1.11-.31.43-.32.57-1.01h2.61q-.09 1.08-.66 1.88-.56.79-1.49 1.22-.92.42-2.11.42m-2.41-5.87q.081-.52.39-.71.32-.19.83-.19h2.9q-.009-1.14-.45-1.72-.429-.58-1.41-.58-1.14 0-1.71.8-.56.8-.55 2.4m14.403 5.91q-1.62 0-2.75-.71-1.13-.72-1.72-2-.58-1.29-.58-2.98 0-1.76.6-3.01.6-1.26 1.71-1.93 1.11-.68 2.61-.68 1.539 0 2.55.6a3.77 3.77 0 0 1 1.51 1.59q.5 1 .48 2.24h-2.69q0-.54-.12-.95t-.36-.69a1.4 1.4 0 0 0-.57-.43q-.34-.15-.79-.15-1.15 0-1.68.88-.53.87-.53 2.48 0 1.81.6 2.67.6.85 1.77.85.45 0 .83-.14.39-.14.63-.44.25-.3.25-.76h2.63q.03 1.08-.53 1.88-.561.8-1.56 1.24-.99.44-2.29.44m12.652-.02q-1.03 0-1.81-.33a2.6 2.6 0 0 1-1.21-1.04q-.43-.71-.44-1.86l-.01-4.5q0-.23.11-.49.12-.26.37-.45.25-.2.64-.25l-1.12-1.73.02-.31.63-3.95h2.08v10.87q0 .98.36 1.31.36.32 1.28.32.43 0 .86-.05.44-.05.86-.14.42-.1.78-.23v2.35a8.7 8.7 0 0 1-1.58.35q-.89.13-1.82.13m-5.69-8.92v-2.17h8.55v2.17zM100.93 23v-2.01h8.26V23zm-.17-8.61v-2.32h3.69v2.32zm2 8.41v-7.05q0-.68.21-.98.22-.31.77-.38l-.98-.73v-1.59h2.3l.19 2.97q.21-1.01.71-1.72a3.4 3.4 0 0 1 1.21-1.08q.72-.38 1.55-.38 1.4 0 2.15 1.13t.66 3.34h-2.45q-.01-1.09-.35-1.57-.34-.49-1.08-.49-.68 0-1.32.41-.64.4-.94.99v4.14q0 .49-.18.79a.8.8 0 0 1-.51.39l.69.5.02 1.31zm13.812.32q-1.5 0-2.37-.84t-.87-2.28q0-1.23.76-1.98t2.43-1.09a26 26 0 0 1 1.08-.18q.56-.08 1.12-.14.56-.07 1.08-.11v-.67q0-.97-.4-1.37-.39-.41-1.32-.41-.91 0-1.4.41-.48.41-.44 1.43h-2.57q-.11-1.23.39-2.13.51-.91 1.55-1.39 1.04-.49 2.52-.49 2.14 0 3.25 1.02 1.11 1.01 1.11 2.99V23h-2.7l.01-2.5a3.3 3.3 0 0 1-.62 1.4 3 3 0 0 1-1.12.91q-.67.31-1.49.31m1.01-1.93q.47 0 .95-.2.49-.21.84-.54t.43-.72v-1.85q-.21.04-.53.09-.31.05-.62.11a9 9 0 0 0-.53.1q-1.03.23-1.5.61-.47.37-.47 1.05 0 .64.39 1 .39.35 1.04.35m14.062 1.97q-1.17 0-1.99-.33t-1.24-1.04-.42-1.83v-9.21q0-.39.2-.64a.9.9 0 0 1 .58-.32h-3.68V7.41h5.64l-.03 11.7q0 1 .35 1.32t1.31.32q.62 0 1.28-.1.66-.11 1.21-.31v2.35q-.66.21-1.53.34t-1.68.13M152.53 23V12.02q0-.45.19-.73.2-.28.61-.35h-4.55V8.46h10.3v2.48h-3.75V23zm13.752.15q-1.56 0-2.7-.65-1.14-.66-1.76-1.91-.62-1.26-.62-3.05 0-1.83.63-3.09.63-1.27 1.75-1.92 1.12-.66 2.58-.66 2.16 0 3.35 1.32t1.19 3.75q0 .3-.02.55a27 27 0 0 1-.03.56h-6.74q.05 1.03.34 1.67t.79.94q.51.29 1.21.29.68 0 1.11-.31.43-.32.57-1.01h2.61q-.09 1.08-.66 1.88-.56.79-1.49 1.22-.92.42-2.11.42m-2.41-5.87q.08-.52.39-.71.32-.19.83-.19h2.9q-.01-1.14-.45-1.72-.43-.58-1.41-.58-1.14 0-1.71.8-.56.8-.55 2.4m8.852 5.72 3.97-6.34.03 1.91-3.91-6.48h3.08l1.41 2.67.63 1.37.59-1.35 1.38-2.69h3.13l-3.95 6.48.01-1.92 4.01 6.35h-3.16l-1.43-2.61-.63-1.32-.62 1.34-1.36 2.59zm18.202.17q-1.03 0-1.81-.33a2.6 2.6 0 0 1-1.21-1.04q-.43-.71-.44-1.86l-.01-4.5q0-.23.11-.49.12-.26.37-.45a1.26 1.26 0 0 1 .64-.25l-1.12-1.73.02-.31.63-3.95h2.08v10.87q0 .98.36 1.31.36.32 1.28.32.43 0 .86-.05.44-.05.86-.14.42-.1.78-.23v2.35q-.69.23-1.58.35-.89.13-1.82.13m-5.69-8.92v-2.17h8.55v2.17zm15.292 8.97q-1.43 0-2.26-.99-.82-.99-.82-2.91v-7.24h2.73v6.83q0 1.17.37 1.57.38.39 1.1.39.7 0 1.23-.42.54-.42.79-.97v-7.4h2.75V23h-2.4l-.27-4.12.14.83q-.13 1.04-.53 1.83-.39.79-1.08 1.24-.69.44-1.75.44m8.333-.22v-2.01h8.26V23zm-.17-8.61v-2.32h3.69v2.32zm2 8.41v-7.05q0-.68.21-.98.22-.31.77-.38l-.98-.73v-1.59h2.3l.19 2.97q.21-1.01.71-1.72a3.4 3.4 0 0 1 1.21-1.08 3.3 3.3 0 0 1 1.55-.38q1.4 0 2.15 1.13t.66 3.34h-2.45q-.01-1.09-.35-1.57-.34-.49-1.08-.49-.681 0-1.32.41-.64.4-.94.99v4.14q0 .49-.18.79a.8.8 0 0 1-.51.39l.69.5.02 1.31zm15.552.35q-1.56 0-2.7-.65-1.14-.66-1.76-1.91-.62-1.26-.62-3.05 0-1.83.63-3.09.63-1.27 1.75-1.92 1.119-.66 2.58-.66 2.16 0 3.35 1.32t1.19 3.75q0 .3-.02.55a27 27 0 0 1-.03.56h-6.74q.05 1.03.34 1.67t.79.94q.51.29 1.21.29.68 0 1.11-.31.429-.32.57-1.01h2.61q-.09 1.08-.66 1.88-.56.79-1.49 1.22-.92.42-2.11.42m-2.41-5.87q.08-.52.39-.71.32-.19.83-.19h2.9q-.01-1.14-.45-1.72-.43-.58-1.41-.58-1.14 0-1.71.8-.56.8-.55 2.4m14.142 5.89a8 8 0 0 1-1.81-.19 4.4 4.4 0 0 1-1.46-.63 3.24 3.24 0 0 1-1-1.12q-.37-.69-.44-1.67h2.72q.09.81.68 1.18.6.37 1.34.37.83 0 1.34-.23.52-.23.52-.87 0-.43-.28-.68-.28-.26-.83-.44-.54-.18-1.34-.4a20 20 0 0 1-1.42-.44 5.3 5.3 0 0 1-1.2-.6 2.7 2.7 0 0 1-.84-.94q-.3-.57-.3-1.42 0-1.08.53-1.79.54-.71 1.5-1.06t2.25-.35q1.11 0 2.04.31.94.31 1.55 1.06t.73 2.08l-2.68-.01q-.09-.58-.33-.89a1.2 1.2 0 0 0-.59-.42 2.4 2.4 0 0 0-.77-.12q-.53 0-.89.12t-.55.36q-.18.23-.18.59 0 .37.26.64.27.26.82.47.56.21 1.39.43.62.16 1.29.36t1.24.54q.58.33.94.9.37.56.37 1.44 0 1.67-1.19 2.55-1.18.87-3.41.87"/>
</svg>